LibreDotMatrix-Regular.ufo
<glyph name="exclam" format="2">
  <advance width="200"/>
  <unicode hex="0021"/>
  <outline>
    <contour>
      <point x="50" y="0" type="line"/>
      <point x="50" y="100" type="line"/>
      <point x="150" y="100" type="line"/>
      <point x="150" y="0" type="line"/>
    </contour>
    <contour>
      <point x="50" y="200" type="line"/>
      <point x="50" y="700" type="line"/>
      <point x="150" y="700" type="line"/>
      <point x="150" y="200" type="line"/>
    </contour>
  </outline>
</glyph>
<glyph name="quotesingle" format="2">
  <advance width="201"/>
  <unicode hex="0027"/>
  <outline>
    <contour>
      <point x="50" y="400" type="line"/>
      <point x="50" y="700" type="line"/>
      <point x="150" y="700" type="line"/>
      <point x="150" y="400" type="line"/>
    </contour>
  </outline>
</glyph>
<glyph name="comma" format="2">
  <advance width="301"/>
  <unicode hex="002C"/>
  <outline>
    <contour>
      <point x="50" y="-100" type="line"/>
      <point x="50" y="0" type="line"/>
      <point x="150" y="0" type="line"/>
      <point x="150" y="200" type="line"/>
      <point x="250" y="200" type="line"/>
      <point x="250" y="0" type="line"/>
      <point x="150" y="0" type="line"/>
      <point x="150" y="-100" type="line"/>
    </contour>
  </outline>
</glyph>
<glyph name="eight" format="2">
  <advance width="600"/>
  <unicode hex="0038"/>
  <outline>
    <contour>
      <point x="450" y="0" type="line"/>
      <point x="150" y="0" type="line"/>
      <point x="150" y="100" type="line"/>
      <point x="50" y="100" type="line"/>
      <point x="50" y="300" type="line"/>
      <point x="150" y="300" type="line"/>
      <point x="150" y="400" type="line"/>
      <point x="50" y="400" type="line"/>
      <point x="50" y="600" type="line"/>
      <point x="150" y="600" type="line"/>
      <point x="150" y="700" type="line"/>
      <point x="450" y="700" type="line"/>
      <point x="450" y="600" type="line"/>
      <point x="550" y="600" type="line"/>
      <point x="550" y="400" type="line"/>
      <point x="450" y="400" type="line"/>
      <point x="450" y="300" type="line"/>
      <point x="550" y="300" type="line"/>
      <point x="550" y="100" type="line"/>
      <point x="450" y="100" type="line"/>
    </contour>
    <contour>
      <point x="150" y="100" type="line"/>
      <point x="450" y="100" type="line"/>
      <point x="450" y="300" type="line"/>
      <point x="150" y="300" type="line"/>
    </contour>
    <contour>
      <point x="150" y="400" type="line"/>
      <point x="450" y="400" type="line"/>
      <point x="450" y="600" type="line"/>
      <point x="150" y="600" type="line"/>
    </contour>
  </outline>
</glyph>
<glyph name="colon" format="2">
  <advance width="201"/>
  <unicode hex="003A"/>
  <outline>
    <contour>
      <point x="50" y="0" type="line"/>
      <point x="50" y="100" type="line"/>
      <point x="150" y="100" type="line"/>
      <point x="150" y="0" type="line"/>
    </contour>
    <contour>
      <point x="50" y="400" type="line"/>
      <point x="50" y="500" type="line"/>
      <point x="150" y="500" type="line"/>
      <point x="150" y="400" type="line"/>
    </contour>
  </outline>
</glyph>
<glyph name="less" format="2">
  <advance width="400"/>
  <unicode hex="003C"/>
  <outline>
    <contour>
      <point x="50" y="300" type="line"/>
      <point x="50" y="400" type="line"/>
      <point x="150" y="400" type="line"/>
      <point x="150" y="500" type="line"/>
      <point x="250" y="500" type="line"/>
      <point x="250" y="600" type="line"/>
      <point x="350" y="600" type="line"/>
      <point x="350" y="500" type="line"/>
      <point x="250" y="500" type="line"/>
      <point x="250" y="400" type="line"/>
      <point x="150" y="400" type="line"/>
      <point x="150" y="300" type="line"/>
      <point x="250" y="300" type="line"/>
      <point x="250" y="200" type="line"/>
      <point x="350" y="200" type="line"/>
      <point x="350" y="100" type="line"/>
      <point x="250" y="100" type="line"/>
      <point x="250" y="200" type="line"/>
      <point x="150" y="200" type="line"/>
      <point x="150" y="300" type="line"/>
    </contour>
  </outline>
</glyph>
<glyph name="D" format="2">
  <advance width="600"/>
  <unicode hex="0044"/>
  <anchor x="300" y="800" name="above"/>
  <outline>
    <contour>
      <point x="350" y="0" type="line"/>
      <point x="50" y="0" type="line"/>
      <point x="50" y="700" type="line"/>
      <point x="350" y="700" type="line"/>
      <point x="350" y="600" type="line"/>
      <point x="450" y="600" type="line"/>
      <point x="450" y="500" type="line"/>
      <point x="550" y="500" type="line"/>
      <point x="550" y="200" type="line"/>
      <point x="450" y="200" type="line"/>
      <point x="450" y="100" type="line"/>
      <point x="350" y="100" type="line"/>
    </contour>
    <contour>
      <point x="150" y="100" type="line"/>
      <point x="350" y="100" type="line"/>
      <point x="350" y="200" type="line"/>
      <point x="450" y="200" type="line"/>
      <point x="450" y="500" type="line"/>
      <point x="350" y="500" type="line"/>
      <point x="350" y="600" type="line"/>
      <point x="150" y="600" type="line"/>
    </contour>
  </outline>
</glyph>
<glyph name="I" format="2">
  <advance width="400"/>
  <unicode hex="0049"/>
  <anchor x="200" y="0" name="marks_below"/>
  <anchor x="200" y="0" name="ogonek"/>
  <anchor x="200" y="800" name="marks_above"/>
  <outline>
    <contour>
      <point x="50" y="0" type="line"/>
      <point x="50" y="100" type="line"/>
      <point x="150" y="100" type="line"/>
      <point x="150" y="600" type="line"/>
      <point x="50" y="600" type="line"/>
      <point x="50" y="700" type="line"/>
      <point x="350" y="700" type="line"/>
      <point x="350" y="600" type="line"/>
      <point x="250" y="600" type="line"/>
      <point x="250" y="100" type="line"/>
      <point x="350" y="100" type="line"/>
      <point x="350" y="0" type="line"/>
    </contour>
  </outline>
</glyph>
<glyph name="J" format="2">
  <advance width="600"/>
  <unicode hex="004A"/>
  <anchor x="400" y="800" name="marks_above"/>
  <outline>
    <contour>
      <point x="50" y="100" type="line"/>
      <point x="50" y="200" type="line"/>
      <point x="150" y="200" type="line"/>
      <point x="150" y="100" type="line"/>
      <point x="350" y="100" type="line"/>
      <point x="350" y="600" type="line"/>
      <point x="250" y="600" type="line"/>
      <point x="250" y="700" type="line"/>
      <point x="550" y="700" type="line"/>
      <point x="550" y="600" type="line"/>
      <point x="450" y="600" type="line"/>
      <point x="450" y="100" type="line"/>
      <point x="350" y="100" type="line"/>
      <point x="350" y="0" type="line"/>
      <point x="150" y="0" type="line"/>
      <point x="150" y="100" type="line"/>
    </contour>
  </outline>
</glyph>
<glyph name="L" format="2">
  <advance width="600"/>
  <unicode hex="004C"/>
  <anchor x="250" y="450" name="aboveright"/>
  <anchor x="300" y="0" name="below"/>
  <anchor x="100" y="800" name="above"/>
  <outline>
    <contour>
      <point x="550" y="0" type="line"/>
      <point x="50" y="0" type="line"/>
      <point x="50" y="700" type="line"/>
      <point x="150" y="700" type="line"/>
      <point x="150" y="100" type="line"/>
      <point x="550" y="100" type="line"/>
    </contour>
  </outline>
</glyph>
<glyph name="S" format="2">
  <advance width="600"/>
  <unicode hex="0053"/>
  <anchor x="300" y="0" name="below"/>
  <anchor x="300" y="800" name="above"/>
  <outline>
    <contour>
      <point x="50" y="100" type="line"/>
      <point x="50" y="200" type="line"/>
      <point x="150" y="200" type="line"/>
      <point x="150" y="100" type="line"/>
      <point x="450" y="100" type="line"/>
      <point x="450" y="300" type="line"/>
      <point x="150" y="300" type="line"/>
      <point x="150" y="400" type="line"/>
      <point x="50" y="400" type="line"/>
      <point x="50" y="600" type="line"/>
      <point x="150" y="600" type="line"/>
      <point x="150" y="700" type="line"/>
      <point x="450" y="700" type="line"/>
      <point x="450" y="600" type="line"/>
      <point x="550" y="600" type="line"/>
      <point x="550" y="500" type="line"/>
      <point x="450" y="500" type="line"/>
      <point x="450" y="600" type="line"/>
      <point x="150" y="600" type="line"/>
      <point x="150" y="400" type="line"/>
      <point x="450" y="400" type="line"/>
      <point x="450" y="300" type="line"/>
      <point x="550" y="300" type="line"/>
      <point x="550" y="100" type="line"/>
      <point x="450" y="100" type="line"/>
      <point x="450" y="0" type="line"/>
      <point x="150" y="0" type="line"/>
      <point x="150" y="100" type="line"/>
    </contour>
  </outline>
</glyph>
<glyph name="V" format="2">
  <advance width="600"/>
  <unicode hex="0056"/>
  <anchor x="300" y="0" name="marks_below"/>
  <anchor x="300" y="800" name="marks_above"/>
  <outline>
    <contour>
      <point x="350" y="100" type="line"/>
      <point x="350" y="0" type="line"/>
      <point x="250" y="0" type="line"/>
      <point x="250" y="100" type="line"/>
      <point x="150" y="100" type="line"/>
      <point x="150" y="200" type="line"/>
      <point x="50" y="200" type="line"/>
      <point x="50" y="700" type="line"/>
      <point x="150" y="700" type="line"/>
      <point x="150" y="200" type="line"/>
      <point x="250" y="200" type="line"/>
      <point x="250" y="100" type="line"/>
      <point x="350" y="100" type="line"/>
      <point x="350" y="200" type="line"/>
      <point x="450" y="200" type="line"/>
      <point x="450" y="700" type="line"/>
      <point x="550" y="700" type="line"/>
      <point x="550" y="200" type="line"/>
      <point x="450" y="200" type="line"/>
      <point x="450" y="100" type="line"/>
    </contour>
  </outline>
</glyph>
<glyph name="bracketleft" format="2">
  <advance width="400"/>
  <unicode hex="005B"/>
  <outline>
    <contour>
      <point x="350" y="0" type="line"/>
      <point x="50" y="0" type="line"/>
      <point x="50" y="700" type="line"/>
      <point x="350" y="700" type="line"/>
      <point x="350" y="600" type="line"/>
      <point x="150" y="600" type="line"/>
      <point x="150" y="100" type="line"/>
      <point x="350" y="100" type="line"/>
    </contour>
  </outline>
</glyph>
<glyph name="asciicircum" format="2">
  <advance width="600"/>
  <unicode hex="005E"/>
  <outline>
    <contour>
      <point x="50" y="400" type="line"/>
      <point x="50" y="500" type="line"/>
      <point x="150" y="500" type="line"/>
      <point x="150" y="600" type="line"/>
      <point x="250" y="600" type="line"/>
      <point x="250" y="700" type="line"/>
      <point x="350" y="700" type="line"/>
      <point x="350" y="600" type="line"/>
      <point x="450" y="600" type="line"/>
      <point x="450" y="500" type="line"/>
      <point x="550" y="500" type="line"/>
      <point x="550" y="400" type="line"/>
      <point x="450" y="400" type="line"/>
      <point x="450" y="500" type="line"/>
      <point x="350" y="500" type="line"/>
      <point x="350" y="600" type="line"/>
      <point x="250" y="600" type="line"/>
      <point x="250" y="500" type="line"/>
      <point x="150" y="500" type="line"/>
      <point x="150" y="400" type="line"/>
    </contour>
  </outline>
</glyph>
<glyph name="underscore" format="2">
  <advance width="600"/>
  <unicode hex="005F"/>
  <outline>
    <contour>
      <point x="0" y="-100" type="line"/>
      <point x="0" y="0" type="line"/>
      <point x="600" y="0" type="line"/>
      <point x="600" y="-100" type="line"/>
    </contour>
  </outline>
</glyph>
<glyph name="grave" format="2">
  <advance width="301"/>
  <unicode hex="0060"/>
  <outline>
    <contour>
      <point x="50" y="600" type="line"/>
      <point x="50" y="700" type="line"/>
      <point x="150" y="700" type="line"/>
      <point x="150" y="600" type="line"/>
      <point x="250" y="600" type="line"/>
      <point x="250" y="500" type="line"/>
      <point x="150" y="500" type="line"/>
      <point x="150" y="600" type="line"/>
    </contour>
  </outline>
</glyph>
<glyph name="c" format="2">
  <advance width="600"/>
  <unicode hex="0063"/>
  <anchor x="300" y="600" name="above"/>
  <anchor x="300" y="0" name="below"/>
  <outline>
    <contour>
      <point x="450" y="0" type="line"/>
      <point x="150" y="0" type="line"/>
      <point x="150" y="100" type="line"/>
      <point x="50" y="100" type="line"/>
      <point x="50" y="400" type="line"/>
      <point x="150" y="400" type="line"/>
      <point x="150" y="500" type="line"/>
      <point x="450" y="500" type="line"/>
      <point x="450" y="400" type="line"/>
      <point x="550" y="400" type="line"/>
      <point x="550" y="300" type="line"/>
      <point x="450" y="300" type="line"/>
      <point x="450" y="400" type="line"/>
      <point x="150" y="400" type="line"/>
      <point x="150" y="100" type="line"/>
      <point x="450" y="100" type="line"/>
      <point x="450" y="200" type="line"/>
      <point x="550" y="200" type="line"/>
      <point x="550" y="100" type="line"/>
      <point x="450" y="100" type="line"/>
    </contour>
  </outline>
</glyph>
<glyph name="e" format="2">
  <advance width="600"/>
  <unicode hex="0065"/>
  <anchor x="400" y="0" name="ogonek"/>
  <anchor x="300" y="600" name="above"/>
  <outline>
    <contour>
      <point x="450" y="0" type="line"/>
      <point x="150" y="0" type="line"/>
      <point x="150" y="100" type="line"/>
      <point x="50" y="100" type="line"/>
      <point x="50" y="400" type="line"/>
      <point x="150" y="400" type="line"/>
      <point x="150" y="500" type="line"/>
      <point x="450" y="500" type="line"/>
      <point x="450" y="400" type="line"/>
      <point x="550" y="400" type="line"/>
      <point x="550" y="200" type="line"/>
      <point x="150" y="200" type="line"/>
      <point x="150" y="100" type="line"/>
      <point x="450" y="100" type="line"/>
    </contour>
    <contour>
      <point x="150" y="300" type="line"/>
      <point x="450" y="300" type="line"/>
      <point x="450" y="400" type="line"/>
      <point x="150" y="400" type="line"/>
    </contour>
  </outline>
</glyph>
<glyph name="i" format="2">
  <advance width="401"/>
  <unicode hex="0069"/>
  <outline>
    <contour>
      <point x="50" y="0" type="line"/>
      <point x="50" y="100" type="line"/>
      <point x="150" y="100" type="line"/>
      <point x="150" y="400" type="line"/>
      <point x="50" y="400" type="line"/>
      <point x="50" y="500" type="line"/>
      <point x="250" y="500" type="line"/>
      <point x="250" y="100" type="line"/>
      <point x="350" y="100" type="line"/>
      <point x="350" y="0" type="line"/>
    </contour>
    <contour>
      <point x="150" y="600" type="line"/>
      <point x="150" y="700" type="line"/>
      <point x="250" y="700" type="line"/>
      <point x="250" y="600" type="line"/>
    </contour>
  </outline>
</glyph>
<glyph name="k" format="2">
  <advance width="600"/>
  <unicode hex="006B"/>
  <outline>
    <contour>
      <point x="450" y="100" type="line"/>
      <point x="350" y="100" type="line"/>
      <point x="350" y="200" type="line"/>
      <point x="150" y="200" type="line"/>
      <point x="150" y="0" type="line"/>
      <point x="50" y="0" type="line"/>
      <point x="50" y="700" type="line"/>
      <point x="150" y="700" type="line"/>
      <point x="150" y="300" type="line"/>
      <point x="350" y="300" type="line"/>
      <point x="350" y="400" type="line"/>
      <point x="450" y="400" type="line"/>
      <point x="450" y="500" type="line"/>
      <point x="550" y="500" type="line"/>
      <point x="550" y="400" type="line"/>
      <point x="450" y="400" type="line"/>
      <point x="450" y="300" type="line"/>
      <point x="350" y="300" type="line"/>
      <point x="350" y="200" type="line"/>
      <point x="450" y="200" type="line"/>
      <point x="450" y="100" type="line"/>
      <point x="550" y="100" type="line"/>
      <point x="550" y="0" type="line"/>
      <point x="450" y="0" type="line"/>
    </contour>
  </outline>
</glyph>
<glyph name="l" format="2">
  <advance width="400"/>
  <unicode hex="006C"/>
  <anchor x="250" y="450" name="aboveright"/>
  <anchor x="200" y="0" name="below"/>
  <anchor x="200" y="800" name="above"/>
  <outline>
    <contour>
      <point x="50" y="0" type="line"/>
      <point x="50" y="100" type="line"/>
      <point x="150" y="100" type="line"/>
      <point x="150" y="600" type="line"/>
      <point x="50" y="600" type="line"/>
      <point x="50" y="700" type="line"/>
      <point x="250" y="700" type="line"/>
      <point x="250" y="100" type="line"/>
      <point x="350" y="100" type="line"/>
      <point x="350" y="0" type="line"/>
    </contour>
  </outline>
</glyph>
<glyph name="m" format="2">
  <advance width="601"/>
  <unicode hex="006D"/>
  <outline>
    <contour>
      <point x="450" y="0" type="line"/>
      <point x="450" y="400" type="line"/>
      <point x="350" y="400" type="line"/>
      <point x="350" y="100" type="line"/>
      <point x="250" y="100" type="line"/>
      <point x="250" y="400" type="line"/>
      <point x="150" y="400" type="line"/>
      <point x="150" y="0" type="line"/>
      <point x="50" y="0" type="line"/>
      <point x="50" y="500" type="line"/>
      <point x="250" y="500" type="line"/>
      <point x="250" y="400" type="line"/>
      <point x="350" y="400" type="line"/>
      <point x="350" y="500" type="line"/>
      <point x="450" y="500" type="line"/>
      <point x="450" y="400" type="line"/>
      <point x="550" y="400" type="line"/>
      <point x="550" y="0" type="line"/>
    </contour>
  </outline>
</glyph>
<glyph name="n" format="2">
  <advance width="600"/>
  <unicode hex="006E"/>
  <anchor x="300" y="600" name="above"/>
  <outline>
    <contour>
      <point x="450" y="0" type="line"/>
      <point x="450" y="400" type="line"/>
      <point x="250" y="400" type="line"/>
      <point x="250" y="300" type="line"/>
      <point x="150" y="300" type="line"/>
      <point x="150" y="0" type="line"/>
      <point x="50" y="0" type="line"/>
      <point x="50" y="500" type="line"/>
      <point x="150" y="500" type="line"/>
      <point x="150" y="400" type="line"/>
      <point x="250" y="400" type="line"/>
      <point x="250" y="500" type="line"/>
      <point x="450" y="500" type="line"/>
      <point x="450" y="400" type="line"/>
      <point x="550" y="400" type="line"/>
      <point x="550" y="0" type="line"/>
    </contour>
  </outline>
</glyph>
<glyph name="r" format="2">
  <advance width="600"/>
  <unicode hex="0072"/>
  <outline>
    <contour>
      <point x="50" y="0" type="line"/>
      <point x="50" y="500" type="line"/>
      <point x="150" y="500" type="line"/>
      <point x="150" y="400" type="line"/>
      <point x="250" y="400" type="line"/>
      <point x="250" y="500" type="line"/>
      <point x="450" y="500" type="line"/>
      <point x="450" y="400" type="line"/>
      <point x="550" y="400" type="line"/>
      <point x="550" y="300" type="line"/>
      <point x="450" y="300" type="line"/>
      <point x="450" y="400" type="line"/>
      <point x="250" y="400" type="line"/>
      <point x="250" y="300" type="line"/>
      <point x="150" y="300" type="line"/>
      <point x="150" y="0" type="line"/>
    </contour>
  </outline>
</glyph>
<glyph name="s" format="2">
  <advance width="601"/>
  <unicode hex="0073"/>
  <outline>
    <contour>
      <point x="50" y="0" type="line"/>
      <point x="50" y="100" type="line"/>
      <point x="450" y="100" type="line"/>
      <point x="450" y="200" type="line"/>
      <point x="150" y="200" type="line"/>
      <point x="150" y="300" type="line"/>
      <point x="50" y="300" type="line"/>
      <point x="50" y="400" type="line"/>
      <point x="150" y="400" type="line"/>
      <point x="150" y="500" type="line"/>
      <point x="550" y="500" type="line"/>
      <point x="550" y="400" type="line"/>
      <point x="150" y="400" type="line"/>
      <point x="150" y="300" type="line"/>
      <point x="450" y="300" type="line"/>
      <point x="450" y="200" type="line"/>
      <point x="550" y="200" type="line"/>
      <point x="550" y="100" type="line"/>
      <point x="450" y="100" type="line"/>
      <point x="450" y="0" type="line"/>
    </contour>
  </outline>
</glyph>
<glyph name="u" format="2">
  <advance width="600"/>
  <unicode hex="0075"/>
  <anchor x="400" y="0" name="ogonek"/>
  <anchor x="300" y="0" name="marks_below"/>
  <anchor x="300" y="600" name="marks_above"/>
  <outline>
    <contour>
      <point x="350" y="0" type="line"/>
      <point x="150" y="0" type="line"/>
      <point x="150" y="100" type="line"/>
      <point x="50" y="100" type="line"/>
      <point x="50" y="500" type="line"/>
      <point x="150" y="500" type="line"/>
      <point x="150" y="100" type="line"/>
      <point x="350" y="100" type="line"/>
      <point x="350" y="200" type="line"/>
      <point x="450" y="200" type="line"/>
      <point x="450" y="500" type="line"/>
      <point x="550" y="500" type="line"/>
      <point x="550" y="0" type="line"/>
      <point x="450" y="0" type="line"/>
      <point x="450" y="100" type="line"/>
      <point x="350" y="100" type="line"/>
    </contour>
  </outline>
</glyph>
<glyph name="v" format="2">
  <advance width="600"/>
  <unicode hex="0076"/>
  <anchor x="300" y="0" name="marks_below"/>
  <anchor x="300" y="600" name="marks_above"/>
  <outline>
    <contour>
      <point x="350" y="100" type="line"/>
      <point x="350" y="0" type="line"/>
      <point x="250" y="0" type="line"/>
      <point x="250" y="100" type="line"/>
      <point x="150" y="100" type="line"/>
      <point x="150" y="200" type="line"/>
      <point x="50" y="200" type="line"/>
      <point x="50" y="500" type="line"/>
      <point x="150" y="500" type="line"/>
      <point x="150" y="200" type="line"/>
      <point x="250" y="200" type="line"/>
      <point x="250" y="100" type="line"/>
      <point x="350" y="100" type="line"/>
      <point x="350" y="200" type="line"/>
      <point x="450" y="200" type="line"/>
      <point x="450" y="500" type="line"/>
      <point x="550" y="500" type="line"/>
      <point x="550" y="200" type="line"/>
      <point x="450" y="200" type="line"/>
      <point x="450" y="100" type="line"/>
    </contour>
  </outline>
</glyph>
<glyph name="x" format="2">
  <advance width="601"/>
  <unicode hex="0078"/>
  <outline>
    <contour>
      <point x="50" y="0" type="line"/>
      <point x="50" y="100" type="line"/>
      <point x="150" y="100" type="line"/>
      <point x="150" y="200" type="line"/>
      <point x="250" y="200" type="line"/>
      <point x="250" y="300" type="line"/>
      <point x="150" y="300" type="line"/>
      <point x="150" y="400" type="line"/>
      <point x="50" y="400" type="line"/>
      <point x="50" y="500" type="line"/>
      <point x="150" y="500" type="line"/>
      <point x="150" y="400" type="line"/>
      <point x="250" y="400" type="line"/>
      <point x="250" y="300" type="line"/>
      <point x="350" y="300" type="line"/>
      <point x="350" y="400" type="line"/>
      <point x="450" y="400" type="line"/>
      <point x="450" y="500" type="line"/>
      <point x="550" y="500" type="line"/>
      <point x="550" y="400" type="line"/>
      <point x="450" y="400" type="line"/>
      <point x="450" y="300" type="line"/>
      <point x="350" y="300" type="line"/>
      <point x="350" y="200" type="line"/>
      <point x="450" y="200" type="line"/>
      <point x="450" y="100" type="line"/>
      <point x="550" y="100" type="line"/>
      <point x="550" y="0" type="line"/>
      <point x="450" y="0" type="line"/>
      <point x="450" y="100" type="line"/>
      <point x="350" y="100" type="line"/>
      <point x="350" y="200" type="line"/>
      <point x="250" y="200" type="line"/>
      <point x="250" y="100" type="line"/>
      <point x="150" y="100" type="line"/>
      <point x="150" y="0" type="line"/>
    </contour>
  </outline>
</glyph>
<glyph name="y" format="2">
  <advance width="600"/>
  <unicode hex="0079"/>
  <anchor x="300" y="600" name="above"/>
  <outline>
    <contour>
      <point x="150" y="-200" type="line"/>
      <point x="150" y="-100" type="line"/>
      <point x="450" y="-100" type="line"/>
      <point x="450" y="100" type="line"/>
      <point x="350" y="100" type="line"/>
      <point x="350" y="0" type="line"/>
      <point x="150" y="0" type="line"/>
      <point x="150" y="100" type="line"/>
      <point x="50" y="100" type="line"/>
      <point x="50" y="500" type="line"/>
      <point x="150" y="500" type="line"/>
      <point x="150" y="100" type="line"/>
      <point x="350" y="100" type="line"/>
      <point x="350" y="200" type="line"/>
      <point x="450" y="200" type="line"/>
      <point x="450" y="500" type="line"/>
      <point x="550" y="500" type="line"/>
      <point x="550" y="-100" type="line"/>
      <point x="450" y="-100" type="line"/>
      <point x="450" y="-200" type="line"/>
    </contour>
  </outline>
</glyph>
<glyph name="z" format="2">
  <advance width="600"/>
  <unicode hex="007A"/>
  <anchor x="300" y="0" name="marks_below"/>
  <anchor x="300" y="600" name="marks_above"/>
  <outline>
    <contour>
      <point x="50" y="0" type="line"/>
      <point x="50" y="100" type="line"/>
      <point x="150" y="100" type="line"/>
      <point x="150" y="200" type="line"/>
      <point x="250" y="200" type="line"/>
      <point x="250" y="300" type="line"/>
      <point x="350" y="300" type="line"/>
      <point x="350" y="400" type="line"/>
      <point x="50" y="400" type="line"/>
      <point x="50" y="500" type="line"/>
      <point x="550" y="500" type="line"/>
      <point x="550" y="400" type="line"/>
      <point x="450" y="400" type="line"/>
      <point x="450" y="300" type="line"/>
      <point x="350" y="300" type="line"/>
      <point x="350" y="200" type="line"/>
      <point x="250" y="200" type="line"/>
      <point x="250" y="100" type="line"/>
      <point x="550" y="100" type="line"/>
      <point x="550" y="0" type="line"/>
    </contour>
  </outline>
</glyph>
<glyph name="braceleft" format="2">
  <advance width="500"/>
  <unicode hex="007B"/>
  <outline>
    <contour>
      <point x="150" y="100" type="line"/>
      <point x="150" y="200" type="line"/>
      <point x="250" y="200" type="line"/>
      <point x="250" y="300" type="line"/>
      <point x="50" y="300" type="line"/>
      <point x="50" y="400" type="line"/>
      <point x="250" y="400" type="line"/>
      <point x="250" y="500" type="line"/>
      <point x="150" y="500" type="line"/>
      <point x="150" y="600" type="line"/>
      <point x="250" y="600" type="line"/>
      <point x="250" y="700" type="line"/>
      <point x="450" y="700" type="line"/>
      <point x="450" y="600" type="line"/>
      <point x="250" y="600" type="line"/>
      <point x="250" y="500" type="line"/>
      <point x="350" y="500" type="line"/>
      <point x="350" y="400" type="line"/>
      <point x="250" y="400" type="line"/>
      <point x="250" y="300" type="line"/>
      <point x="350" y="300" type="line"/>
      <point x="350" y="200" type="line"/>
      <point x="250" y="200" type="line"/>
      <point x="250" y="100" type="line"/>
      <point x="450" y="100" type="line"/>
      <point x="450" y="0" type="line"/>
      <point x="250" y="0" type="line"/>
      <point x="250" y="100" type="line"/>
    </contour>
  </outline>
</glyph>
<glyph name="bar" format="2">
  <advance width="201"/>
  <unicode hex="007C"/>
  <outline>
    <contour>
      <point x="50" y="0" type="line"/>
      <point x="50" y="700" type="line"/>
      <point x="150" y="700" type="line"/>
      <point x="150" y="0" type="line"/>
    </contour>
  </outline>
</glyph>
<glyph name="braceright" format="2">
  <advance width="500"/>
  <unicode hex="007D"/>
  <outline>
    <contour>
      <point x="50" y="0" type="line"/>
      <point x="50" y="100" type="line"/>
      <point x="250" y="100" type="line"/>
      <point x="250" y="200" type="line"/>
      <point x="150" y="200" type="line"/>
      <point x="150" y="300" type="line"/>
      <point x="250" y="300" type="line"/>
      <point x="250" y="400" type="line"/>
      <point x="150" y="400" type="line"/>
      <point x="150" y="500" type="line"/>
      <point x="250" y="500" type="line"/>
      <point x="250" y="600" type="line"/>
      <point x="50" y="600" type="line"/>
      <point x="50" y="700" type="line"/>
      <point x="250" y="700" type="line"/>
      <point x="250" y="600" type="line"/>
      <point x="350" y="600" type="line"/>
      <point x="350" y="500" type="line"/>
      <point x="250" y="500" type="line"/>
      <point x="250" y="400" type="line"/>
      <point x="450" y="400" type="line"/>
      <point x="450" y="300" type="line"/>
      <point x="250" y="300" type="line"/>
      <point x="250" y="200" type="line"/>
      <point x="350" y="200" type="line"/>
      <point x="350" y="100" type="line"/>
      <point x="250" y="100" type="line"/>
      <point x="250" y="0" type="line"/>
    </contour>
  </outline>
</glyph>
<glyph name="asciitilde" format="2">
  <advance width="601"/>
  <unicode hex="007E"/>
  <outline>
    <contour>
      <point x="450" y="300" type="line"/>
      <point x="450" y="200" type="line"/>
      <point x="350" y="200" type="line"/>
      <point x="350" y="300" type="line"/>
      <point x="250" y="300" type="line"/>
      <point x="250" y="400" type="line"/>
      <point x="150" y="400" type="line"/>
      <point x="150" y="200" type="line"/>
      <point x="50" y="200" type="line"/>
      <point x="50" y="400" type="line"/>
      <point x="150" y="400" type="line"/>
      <point x="150" y="500" type="line"/>
      <point x="250" y="500" type="line"/>
      <point x="250" y="400" type="line"/>
      <point x="350" y="400" type="line"/>
      <point x="350" y="300" type="line"/>
      <point x="450" y="300" type="line"/>
      <point x="450" y="500" type="line"/>
      <point x="550" y="500" type="line"/>
      <point x="550" y="300" type="line"/>
    </contour>
  </outline>
</glyph>
<glyph name="brokenbar" format="2">
  <advance width="200"/>
  <unicode hex="00A6"/>
  <outline>
    <contour>
      <point x="50" y="0" type="line"/>
      <point x="50" y="300" type="line"/>
      <point x="150" y="300" type="line"/>
      <point x="150" y="0" type="line"/>
    </contour>
    <contour>
      <point x="50" y="400" type="line"/>
      <point x="50" y="700" type="line"/>
      <point x="150" y="700" type="line"/>
      <point x="150" y="400" type="line"/>
    </contour>
  </outline>
</glyph>
<glyph name="dieresis" format="2">
  <advance width="400"/>
  <unicode hex="00A8"/>
  <outline>
    <contour>
      <point x="250" y="600" type="line"/>
      <point x="250" y="700" type="line"/>
      <point x="350" y="700" type="line"/>
      <point x="350" y="600" type="line"/>
    </contour>
    <contour>
      <point x="50" y="600" type="line"/>
      <point x="50" y="700" type="line"/>
      <point x="150" y="700" type="line"/>
      <point x="150" y="600" type="line"/>
    </contour>
  </outline>
</glyph>
<glyph name="mu" format="2">
  <advance width="600"/>
  <unicode hex="00B5"/>
  <outline>
    <contour>
      <point x="50" y="-200" type="line"/>
      <point x="50" y="500" type="line"/>
      <point x="150" y="500" type="line"/>
      <point x="150" y="100" type="line"/>
      <point x="350" y="100" type="line"/>
      <point x="350" y="500" type="line"/>
      <point x="450" y="500" type="line"/>
      <point x="450" y="100" type="line"/>
      <point x="550" y="100" type="line"/>
      <point x="550" y="0" type="line"/>
      <point x="450" y="0" type="line"/>
      <point x="450" y="100" type="line"/>
      <point x="350" y="100" type="line"/>
      <point x="350" y="0" type="line"/>
      <point x="150" y="0" type="line"/>
      <point x="150" y="-200" type="line"/>
    </contour>
  </outline>
</glyph>
<glyph name="periodcentered" format="2">
  <advance width="200"/>
  <unicode hex="00B7"/>
  <outline>
    <contour>
      <point x="50.0" y="300.0" type="line"/>
      <point x="50.0" y="400.0" type="line"/>
      <point x="150.0" y="400.0" type="line"/>
      <point x="150.0" y="300.0" type="line"/>
    </contour>
  </outline>
</glyph>
<glyph name="cedilla" format="2">
  <advance width="300"/>
  <unicode hex="00B8"/>
  <anchor x="200" y="0" name="_below"/>
  <outline>
    <contour>
      <point x="50" y="-200" type="line"/>
      <point x="50" y="-100" type="line"/>
      <point x="150" y="-100" type="line"/>
      <point x="150" y="0" type="line"/>
      <point x="250" y="0" type="line"/>
      <point x="250" y="-200" type="line"/>
    </contour>
  </outline>
</glyph>
<glyph name="AE" format="2">
  <advance width="600"/>
  <unicode hex="00C6"/>
  <anchor x="300" y="0" name="marks_below"/>
  <anchor x="300" y="800" name="marks_above"/>
  <outline>
    <contour>
      <point x="550" y="0" type="line"/>
      <point x="250" y="0" type="line"/>
      <point x="250" y="200" type="line"/>
      <point x="150" y="200" type="line"/>
      <point x="150" y="0" type="line"/>
      <point x="50" y="0" type="line"/>
      <point x="50" y="500" type="line"/>
      <point x="150" y="500" type="line"/>
      <point x="150" y="600" type="line"/>
      <point x="250" y="600" type="line"/>
      <point x="250" y="700" type="line"/>
      <point x="550" y="700" type="line"/>
      <point x="550" y="600" type="line"/>
      <point x="350" y="600" type="line"/>
      <point x="350" y="400" type="line"/>
      <point x="550" y="400" type="line"/>
      <point x="550" y="300" type="line"/>
      <point x="350" y="300" type="line"/>
      <point x="350" y="100" type="line"/>
      <point x="550" y="100" type="line"/>
    </contour>
    <contour>
      <point x="250" y="300" type="line"/>
      <point x="250" y="500" type="line"/>
      <point x="150" y="500" type="line"/>
      <point x="150" y="300" type="line"/>
    </contour>
  </outline>
</glyph>
<glyph name="Ccedilla" format="2">
  <advance width="600"/>
  <unicode hex="00C7"/>
  <outline>
    <contour>
      <point x="150" y="-200" type="line"/>
      <point x="150" y="-100" type="line"/>
      <point x="250" y="-100" type="line"/>
      <point x="250" y="0" type="line"/>
      <point x="150" y="0" type="line"/>
      <point x="150" y="100" type="line"/>
      <point x="50" y="100" type="line"/>
      <point x="50" y="600" type="line"/>
      <point x="150" y="600" type="line"/>
      <point x="150" y="700" type="line"/>
      <point x="450" y="700" type="line"/>
      <point x="450" y="600" type="line"/>
      <point x="550" y="600" type="line"/>
      <point x="550" y="500" type="line"/>
      <point x="450" y="500" type="line"/>
      <point x="450" y="600" type="line"/>
      <point x="150" y="600" type="line"/>
      <point x="150" y="100" type="line"/>
      <point x="450" y="100" type="line"/>
      <point x="450" y="200" type="line"/>
      <point x="550" y="200" type="line"/>
      <point x="550" y="100" type="line"/>
      <point x="450" y="100" type="line"/>
      <point x="450" y="0" type="line"/>
      <point x="350" y="0" type="line"/>
      <point x="350" y="-200" type="line"/>
    </contour>
  </outline>
</glyph>
<glyph name="Thorn" format="2">
  <advance width="600"/>
  <unicode hex="00DE"/>
  <anchor x="300" y="0" name="marks_below"/>
  <anchor x="300" y="800" name="marks_above"/>
  <outline>
    <contour>
      <point x="450" y="100" type="line"/>
      <point x="150" y="100" type="line"/>
      <point x="150" y="0" type="line"/>
      <point x="50" y="0" type="line"/>
      <point x="50" y="700" type="line"/>
      <point x="150" y="700" type="line"/>
      <point x="150" y="600" type="line"/>
      <point x="450" y="600" type="line"/>
      <point x="450" y="500" type="line"/>
      <point x="550" y="500" type="line"/>
      <point x="550" y="200" type="line"/>
      <point x="450" y="200" type="line"/>
    </contour>
    <contour>
      <point x="150" y="200" type="line"/>
      <point x="450" y="200" type="line"/>
      <point x="450" y="500" type="line"/>
      <point x="150" y="500" type="line"/>
    </contour>
  </outline>
</glyph>
<glyph name="germandbls" format="2">
  <advance width="600"/>
  <unicode hex="00DF"/>
  <outline>
    <contour>
      <point x="250" y="0" type="line"/>
      <point x="250" y="100" type="line"/>
      <point x="450" y="100" type="line"/>
      <point x="450" y="300" type="line"/>
      <point x="250" y="300" type="line"/>
      <point x="250" y="400" type="line"/>
      <point x="350" y="400" type="line"/>
      <point x="350" y="600" type="line"/>
      <point x="150" y="600" type="line"/>
      <point x="150" y="0" type="line"/>
      <point x="50" y="0" type="line"/>
      <point x="50" y="600" type="line"/>
      <point x="150" y="600" type="line"/>
      <point x="150" y="700" type="line"/>
      <point x="350" y="700" type="line"/>
      <point x="350" y="600" type="line"/>
      <point x="450" y="600" type="line"/>
      <point x="450" y="300" type="line"/>
      <point x="550" y="300" type="line"/>
      <point x="550" y="100" type="line"/>
      <point x="450" y="100" type="line"/>
      <point x="450" y="0" type="line"/>
    </contour>
  </outline>
</glyph>
<glyph name="oslash" format="2">
  <advance width="600"/>
  <unicode hex="00F8"/>
  <outline>
    <contour>
      <point x="50" y="0" type="line"/>
      <point x="50" y="100" type="line"/>
      <point x="150" y="100" type="line"/>
      <point x="150" y="200" type="line"/>
      <point x="50" y="200" type="line"/>
      <point x="50" y="400" type="line"/>
      <point x="150" y="400" type="line"/>
      <point x="150" y="500" type="line"/>
      <point x="350" y="500" type="line"/>
      <point x="350" y="400" type="line"/>
      <point x="450" y="400" type="line"/>
      <point x="450" y="500" type="line"/>
      <point x="550" y="500" type="line"/>
      <point x="550" y="400" type="line"/>
      <point x="450" y="400" type="line"/>
      <point x="450" y="300" type="line"/>
      <point x="550" y="300" type="line"/>
      <point x="550" y="100" type="line"/>
      <point x="450" y="100" type="line"/>
      <point x="450" y="0" type="line"/>
      <point x="250" y="0" type="line"/>
      <point x="250" y="100" type="line"/>
      <point x="150" y="100" type="line"/>
      <point x="150" y="0" type="line"/>
    </contour>
    <contour>
      <point x="250" y="100" type="line"/>
      <point x="450" y="100" type="line"/>
      <point x="450" y="300" type="line"/>
      <point x="350" y="300" type="line"/>
      <point x="350" y="200" type="line"/>
      <point x="250" y="200" type="line"/>
    </contour>
    <contour>
      <point x="250" y="200" type="line"/>
      <point x="250" y="300" type="line"/>
      <point x="350" y="300" type="line"/>
      <point x="350" y="400" type="line"/>
      <point x="150" y="400" type="line"/>
      <point x="150" y="200" type="line"/>
    </contour>
  </outline>
</glyph>
<glyph name="eogonek" format="2">
  <advance width="600"/>
  <unicode hex="0119"/>
  <outline>
    <contour>
      <point x="550" y="-200" type="line"/>
      <point x="350" y="-200" type="line"/>
      <point x="350" y="0" type="line"/>
      <point x="150" y="0" type="line"/>
      <point x="150" y="100" type="line"/>
      <point x="50" y="100" type="line"/>
      <point x="50" y="400" type="line"/>
      <point x="150" y="400" type="line"/>
      <point x="150" y="500" type="line"/>
      <point x="450" y="500" type="line"/>
      <point x="450" y="400" type="line"/>
      <point x="550" y="400" type="line"/>
      <point x="550" y="200" type="line"/>
      <point x="150" y="200" type="line"/>
      <point x="150" y="100" type="line"/>
      <point x="450" y="100" type="line"/>
      <point x="450" y="-100" type="line"/>
      <point x="550" y="-100" type="line"/>
    </contour>
    <contour>
      <point x="450" y="400" type="line"/>
      <point x="150" y="400" type="line"/>
      <point x="150" y="300" type="line"/>
      <point x="450" y="300" type="line"/>
    </contour>
  </outline>
</glyph>
<glyph name="Iogonek" format="2">
  <advance width="400"/>
  <unicode hex="012E"/>
  <outline>
    <contour>
      <point x="50" y="600" type="line"/>
      <point x="50" y="700" type="line"/>
      <point x="350" y="700" type="line"/>
      <point x="350" y="600" type="line"/>
      <point x="250" y="600" type="line"/>
      <point x="250" y="100" type="line"/>
      <point x="350" y="100" type="line"/>
      <point x="350" y="0" type="line"/>
      <point x="250" y="0" type="line"/>
      <point x="250" y="-100" type="line"/>
      <point x="350" y="-100" type="line"/>
      <point x="350" y="-200" type="line"/>
      <point x="150" y="-200" type="line"/>
      <point x="150" y="0" type="line"/>
      <point x="50" y="0" type="line"/>
      <point x="50" y="100" type="line"/>
      <point x="150" y="100" type="line"/>
      <point x="150" y="600" type="line"/>
    </contour>
  </outline>
</glyph>
<glyph name="dotlessi" format="2">
  <advance width="400"/>
  <unicode hex="0131"/>
  <anchor x="200" y="600" name="above"/>
  <outline>
    <contour>
      <point x="50" y="0" type="line"/>
      <point x="50" y="100" type="line"/>
      <point x="150" y="100" type="line"/>
      <point x="150" y="400" type="line"/>
      <point x="50" y="400" type="line"/>
      <point x="50" y="500" type="line"/>
      <point x="250" y="500" type="line"/>
      <point x="250" y="100" type="line"/>
      <point x="350" y="100" type="line"/>
      <point x="350" y="0" type="line"/>
    </contour>
  </outline>
</glyph>
<glyph name="uni013C" format="2">
  <advance width="400"/>
  <unicode hex="013C"/>
  <outline>
    <contour>
      <point x="50" y="-200" type="line"/>
      <point x="50" y="-100" type="line"/>
      <point x="150" y="-100" type="line"/>
      <point x="150" y="0" type="line"/>
      <point x="50" y="0" type="line"/>
      <point x="50" y="100" type="line"/>
      <point x="150" y="100" type="line"/>
      <point x="150" y="600" type="line"/>
      <point x="50" y="600" type="line"/>
      <point x="50" y="700" type="line"/>
      <point x="250" y="700" type="line"/>
      <point x="250" y="100" type="line"/>
      <point x="350" y="100" type="line"/>
      <point x="350" y="0" type="line"/>
      <point x="250" y="0" type="line"/>
      <point x="250" y="-100" type="line"/>
      <point x="150" y="-100" type="line"/>
      <point x="150" y="-200" type="line"/>
    </contour>
  </outline>
</glyph>
<glyph name="lcaron" format="2">
  <advance width="500"/>
  <unicode hex="013E"/>
  <outline>
    <contour>
      <point x="50" y="600" type="line"/>
      <point x="50" y="700" type="line"/>
      <point x="250" y="700" type="line"/>
      <point x="250" y="500" type="line"/>
      <point x="350" y="500" type="line"/>
      <point x="350" y="700" type="line"/>
      <point x="450" y="700" type="line"/>
      <point x="450" y="500" type="line"/>
      <point x="350" y="500" type="line"/>
      <point x="350" y="400" type="line"/>
      <point x="250" y="400" type="line"/>
      <point x="250" y="100" type="line"/>
      <point x="350" y="100" type="line"/>
      <point x="350" y="0" type="line"/>
      <point x="50" y="0" type="line"/>
      <point x="50" y="100" type="line"/>
      <point x="150" y="100" type="line"/>
      <point x="150" y="600" type="line"/>
    </contour>
  </outline>
</glyph>
<glyph name="Eng" format="2">
  <advance width="600"/>
  <unicode hex="014A"/>
  <anchor x="300" y="0" name="marks_below"/>
  <anchor x="300" y="800" name="marks_above"/>
  <outline>
    <contour>
      <point x="250" y="-200" type="line"/>
      <point x="250" y="-100" type="line"/>
      <point x="450" y="-100" type="line"/>
      <point x="450" y="600" type="line"/>
      <point x="250" y="600" type="line"/>
      <point x="250" y="500" type="line"/>
      <point x="150" y="500" type="line"/>
      <point x="150" y="0" type="line"/>
      <point x="50" y="0" type="line"/>
      <point x="50" y="700" type="line"/>
      <point x="150" y="700" type="line"/>
      <point x="150" y="600" type="line"/>
      <point x="250" y="600" type="line"/>
      <point x="250" y="700" type="line"/>
      <point x="450" y="700" type="line"/>
      <point x="450" y="600" type="line"/>
      <point x="550" y="600" type="line"/>
      <point x="550" y="-100" type="line"/>
      <point x="450" y="-100" type="line"/>
      <point x="450" y="-200" type="line"/>
    </contour>
  </outline>
</glyph>
<glyph name="caron" format="2">
  <advance width="400"/>
  <unicode hex="02C7"/>
  <outline>
    <contour>
      <point x="50" y="700" type="line"/>
      <point x="50" y="800" type="line"/>
      <point x="150" y="800" type="line"/>
      <point x="150" y="700" type="line"/>
      <point x="250" y="700" type="line"/>
      <point x="250" y="800" type="line"/>
      <point x="350" y="800" type="line"/>
      <point x="350" y="700" type="line"/>
      <point x="250" y="700" type="line"/>
      <point x="250" y="600" type="line"/>
      <point x="150" y="600" type="line"/>
      <point x="150" y="700" type="line"/>
    </contour>
  </outline>
</glyph>
<glyph name="breve" format="2">
  <advance width="600"/>
  <unicode hex="02D8"/>
  <outline>
    <contour>
      <point x="50" y="700" type="line"/>
      <point x="50" y="800" type="line"/>
      <point x="150" y="800" type="line"/>
      <point x="150" y="700" type="line"/>
      <point x="450" y="700" type="line"/>
      <point x="450" y="800" type="line"/>
      <point x="550" y="800" type="line"/>
      <point x="550" y="700" type="line"/>
      <point x="450" y="700" type="line"/>
      <point x="450" y="600" type="line"/>
      <point x="150" y="600" type="line"/>
      <point x="150" y="700" type="line"/>
    </contour>
  </outline>
</glyph>
<glyph name="ring" format="2">
  <advance width="400"/>
  <unicode hex="02DA"/>
  <outline>
    <contour>
      <point x="50" y="600" type="line"/>
      <point x="50" y="700" type="line"/>
      <point x="150" y="700" type="line"/>
      <point x="150" y="800" type="line"/>
      <point x="250" y="800" type="line"/>
      <point x="250" y="700" type="line"/>
      <point x="350" y="700" type="line"/>
      <point x="350" y="600" type="line"/>
      <point x="250" y="600" type="line"/>
      <point x="250" y="500" type="line"/>
      <point x="150" y="500" type="line"/>
      <point x="150" y="600" type="line"/>
    </contour>
    <contour>
      <point x="250" y="600" type="line"/>
      <point x="250" y="700" type="line"/>
      <point x="150" y="700" type="line"/>
      <point x="150" y="600" type="line"/>
    </contour>
  </outline>
</glyph>
<glyph name="quoteleft" format="2">
  <advance width="300"/>
  <unicode hex="2018"/>
  <outline>
    <contour>
      <point x="50" y="400" type="line"/>
      <point x="50" y="600" type="line"/>
      <point x="150" y="600" type="line"/>
      <point x="150" y="700" type="line"/>
      <point x="250" y="700" type="line"/>
      <point x="250" y="600" type="line"/>
      <point x="150" y="600" type="line"/>
      <point x="150" y="400" type="line"/>
    </contour>
  </outline>
</glyph>
<glyph name="dagger" format="2">
  <advance width="600"/>
  <unicode hex="2020"/>
  <outline>
    <contour>
      <point x="50" y="400" type="line"/>
      <point x="50" y="500" type="line"/>
      <point x="250" y="500" type="line"/>
      <point x="250" y="700" type="line"/>
      <point x="350" y="700" type="line"/>
      <point x="350" y="500" type="line"/>
      <point x="550" y="500" type="line"/>
      <point x="550" y="400" type="line"/>
      <point x="350" y="400" type="line"/>
      <point x="350" y="0" type="line"/>
      <point x="250" y="0" type="line"/>
      <point x="250" y="400" type="line"/>
    </contour>
  </outline>
</glyph>
<glyph name="bullet" format="2">
  <advance width="300"/>
  <unicode hex="2022"/>
  <outline>
    <contour>
      <point x="250.0" y="300.0" type="line"/>
      <point x="50.0" y="300.0" type="line"/>
      <point x="50.0" y="500.0" type="line"/>
      <point x="250.0" y="500.0" type="line"/>
    </contour>
  </outline>
</glyph>
<glyph name="ellipsis" format="2">
  <advance width="600"/>
  <unicode hex="2026"/>
  <outline>
    <contour>
      <point x="250" y="0" type="line"/>
      <point x="250" y="100" type="line"/>
      <point x="350" y="100" type="line"/>
      <point x="350" y="0" type="line"/>
    </contour>
    <contour>
      <point x="450" y="0" type="line"/>
      <point x="450" y="100" type="line"/>
      <point x="550" y="100" type="line"/>
      <point x="550" y="0" type="line"/>
    </contour>
    <contour>
      <point x="50" y="0" type="line"/>
      <point x="50" y="100" type="line"/>
      <point x="150" y="100" type="line"/>
      <point x="150" y="0" type="line"/>
    </contour>
  </outline>
</glyph>
<glyph name="perthousand" format="2">
  <advance width="900"/>
  <unicode hex="2030"/>
  <outline>
    <contour>
      <point x="50" y="100" type="line"/>
      <point x="50" y="200" type="line"/>
      <point x="150" y="200" type="line"/>
      <point x="150" y="300" type="line"/>
      <point x="250" y="300" type="line"/>
      <point x="250" y="400" type="line"/>
      <point x="350" y="400" type="line"/>
      <point x="350" y="500" type="line"/>
      <point x="450" y="500" type="line"/>
      <point x="450" y="600" type="line"/>
      <point x="550" y="600" type="line"/>
      <point x="550" y="500" type="line"/>
      <point x="450" y="500" type="line"/>
      <point x="450" y="400" type="line"/>
      <point x="350" y="400" type="line"/>
      <point x="350" y="300" type="line"/>
      <point x="250" y="300" type="line"/>
      <point x="250" y="200" type="line"/>
      <point x="150" y="200" type="line"/>
      <point x="150" y="100" type="line"/>
    </contour>
    <contour>
      <point x="650" y="200" type="line"/>
      <point x="850" y="200" type="line"/>
      <point x="850" y="0" type="line"/>
      <point x="650" y="0" type="line"/>
    </contour>
    <contour>
      <point x="50" y="700" type="line"/>
      <point x="250" y="700" type="line"/>
      <point x="250" y="500" type="line"/>
      <point x="50" y="500" type="line"/>
    </contour>
    <contour>
      <point x="350" y="200" type="line"/>
      <point x="550" y="200" type="line"/>
      <point x="550" y="0" type="line"/>
      <point x="350" y="0" type="line"/>
    </contour>
  </outline>
</glyph>
<glyph name="guilsinglleft" format="2">
  <advance width="300"/>
  <unicode hex="2039"/>
  <outline>
    <contour>
      <point x="50" y="300" type="line"/>
      <point x="50" y="400" type="line"/>
      <point x="150" y="400" type="line"/>
      <point x="150" y="500" type="line"/>
      <point x="250" y="500" type="line"/>
      <point x="250" y="400" type="line"/>
      <point x="150" y="400" type="line"/>
      <point x="150" y="300" type="line"/>
      <point x="250" y="300" type="line"/>
      <point x="250" y="200" type="line"/>
      <point x="150" y="200" type="line"/>
      <point x="150" y="300" type="line"/>
    </contour>
  </outline>
</glyph>
<glyph name="guilsinglright" format="2">
  <advance width="300"/>
  <unicode hex="203A"/>
  <outline>
    <contour>
      <point x="50" y="200" type="line"/>
      <point x="50" y="300" type="line"/>
      <point x="150" y="300" type="line"/>
      <point x="150" y="400" type="line"/>
      <point x="50" y="400" type="line"/>
      <point x="50" y="500" type="line"/>
      <point x="150" y="500" type="line"/>
      <point x="150" y="400" type="line"/>
      <point x="250" y="400" type="line"/>
      <point x="250" y="300" type="line"/>
      <point x="150" y="300" type="line"/>
      <point x="150" y="200" type="line"/>
    </contour>
  </outline>
</glyph>
<glyph name="uni2074" format="2">
  <advance width="400"/>
  <unicode hex="2074"/>
  <outline>
    <contour>
      <point x="350" y="700" type="line"/>
      <point x="350" y="200" type="line"/>
      <point x="250" y="200" type="line"/>
      <point x="250" y="300" type="line"/>
      <point x="50" y="300" type="line"/>
      <point x="50" y="500" type="line"/>
      <point x="150" y="500" type="line"/>
      <point x="150" y="600" type="line"/>
      <point x="250" y="600" type="line"/>
      <point x="250" y="700" type="line"/>
    </contour>
    <contour>
      <point x="250" y="400" type="line"/>
      <point x="250" y="500" type="line"/>
      <point x="150" y="500" type="line"/>
      <point x="150" y="400" type="line"/>
    </contour>
  </outline>
</glyph>
<glyph name="uni20BA" format="2">
  <advance width="600"/>
  <unicode hex="20BA"/>
  <outline>
    <contour>
      <point x="50" y="300" type="line"/>
      <point x="50" y="400" type="line"/>
      <point x="150" y="400" type="line"/>
      <point x="150" y="500" type="line"/>
      <point x="50" y="500" type="line"/>
      <point x="50" y="600" type="line"/>
      <point x="150" y="600" type="line"/>
      <point x="150" y="700" type="line"/>
      <point x="250" y="700" type="line"/>
      <point x="250" y="600" type="line"/>
      <point x="350" y="600" type="line"/>
      <point x="350" y="500" type="line"/>
      <point x="250" y="500" type="line"/>
      <point x="250" y="400" type="line"/>
      <point x="350" y="400" type="line"/>
      <point x="350" y="300" type="line"/>
      <point x="250" y="300" type="line"/>
      <point x="250" y="100" type="line"/>
      <point x="450" y="100" type="line"/>
      <point x="450" y="300" type="line"/>
      <point x="550" y="300" type="line"/>
      <point x="550" y="100" type="line"/>
      <point x="450" y="100" type="line"/>
      <point x="450" y="0" type="line"/>
      <point x="150" y="0" type="line"/>
      <point x="150" y="300" type="line"/>
    </contour>
  </outline>
</glyph>
<glyph name="uni2113" format="2">
  <advance width="600"/>
  <unicode hex="2113"/>
  <outline>
    <contour>
      <point x="50" y="200" type="line"/>
      <point x="50" y="300" type="line"/>
      <point x="150" y="300" type="line"/>
      <point x="150" y="600" type="line"/>
      <point x="250" y="600" type="line"/>
      <point x="250" y="700" type="line"/>
      <point x="350" y="700" type="line"/>
      <point x="350" y="600" type="line"/>
      <point x="450" y="600" type="line"/>
      <point x="450" y="400" type="line"/>
      <point x="350" y="400" type="line"/>
      <point x="350" y="300" type="line"/>
      <point x="250" y="300" type="line"/>
      <point x="250" y="100" type="line"/>
      <point x="450" y="100" type="line"/>
      <point x="450" y="200" type="line"/>
      <point x="550" y="200" type="line"/>
      <point x="550" y="100" type="line"/>
      <point x="450" y="100" type="line"/>
      <point x="450" y="0" type="line"/>
      <point x="250" y="0" type="line"/>
      <point x="250" y="100" type="line"/>
      <point x="150" y="100" type="line"/>
      <point x="150" y="200" type="line"/>
    </contour>
    <contour>
      <point x="350" y="400" type="line"/>
      <point x="350" y="600" type="line"/>
      <point x="250" y="600" type="line"/>
      <point x="250" y="400" type="line"/>
    </contour>
  </outline>
</glyph>
<glyph name="estimated" format="2">
  <advance width="891"/>
  <unicode hex="212E"/>
  <outline>
    <contour>
      <point x="700.0" y="550.0" type="line" smooth="yes"/>
      <point x="700.0" y="570.0"/>
      <point x="700.0" y="580.0"/>
      <point x="680.0" y="600.0" type="curve" smooth="yes"/>
      <point x="620.0" y="660.0"/>
      <point x="540.0" y="690.0"/>
      <point x="450.0" y="690.0" type="curve" smooth="yes"/>
      <point x="360.0" y="690.0"/>
      <point x="270.0" y="660.0"/>
      <point x="210.0" y="600.0" type="curve" smooth="yes"/>
      <point x="190.0" y="580.0"/>
      <point x="190.0" y="570.0"/>
      <point x="190.0" y="550.0" type="curve" smooth="yes"/>
      <point x="190.0" y="360.0" type="line"/>
      <point x="700.0" y="360.0" type="line"/>
    </contour>
    <contour>
      <point x="190.0" y="340.0" type="line"/>
      <point x="190.0" y="150.0" type="line" smooth="yes"/>
      <point x="190.0" y="130.0"/>
      <point x="190.0" y="120.0"/>
      <point x="210.0" y="100.0" type="curve" smooth="yes"/>
      <point x="270.0" y="40.0"/>
      <point x="360.0" y="10.0"/>
      <point x="450.0" y="10.0" type="curve" smooth="yes"/>
      <point x="560.0" y="10.0"/>
      <point x="650.0" y="60.0"/>
      <point x="710.0" y="130.0" type="curve"/>
      <point x="770.0" y="130.0" type="line"/>
      <point x="690.0" y="40.0"/>
      <point x="580.0" y="-20.0"/>
      <point x="450.0" y="-20.0" type="curve" smooth="yes"/>
      <point x="240.0" y="-20.0"/>
      <point x="40.0" y="140.0"/>
      <point x="40.0" y="350.0" type="curve" smooth="yes"/>
      <point x="40.0" y="560.0"/>
      <point x="240.0" y="720.0"/>
      <point x="450.0" y="720.0" type="curve" smooth="yes"/>
      <point x="670.0" y="720.0"/>
      <point x="850.0" y="560.0"/>
      <point x="850.0" y="340.0" type="curve"/>
    </contour>
  </outline>
</glyph>
<glyph name="minus" format="2">
  <advance width="600"/>
  <unicode hex="2212"/>
  <outline>
    <contour>
      <point x="50" y="300" type="line"/>
      <point x="50" y="400" type="line"/>
      <point x="550" y="400" type="line"/>
      <point x="550" y="300" type="line"/>
    </contour>
  </outline>
</glyph>
<glyph name="radical" format="2">
  <advance width="600"/>
  <unicode hex="221A"/>
  <outline>
    <contour>
      <point x="50" y="200" type="line"/>
      <point x="50" y="300" type="line"/>
      <point x="150" y="300" type="line"/>
      <point x="150" y="200" type="line"/>
      <point x="250" y="200" type="line"/>
      <point x="250" y="700" type="line"/>
      <point x="550" y="700" type="line"/>
      <point x="550" y="600" type="line"/>
      <point x="350" y="600" type="line"/>
      <point x="350" y="0" type="line"/>
      <point x="250" y="0" type="line"/>
      <point x="250" y="100" type="line"/>
      <point x="150" y="100" type="line"/>
      <point x="150" y="200" type="line"/>
    </contour>
  </outline>
</glyph>
<glyph name="lessequal" format="2">
  <advance width="400"/>
  <unicode hex="2264"/>
  <outline>
    <contour>
      <point x="50" y="0" type="line"/>
      <point x="50" y="100" type="line"/>
      <point x="350" y="100" type="line"/>
      <point x="350" y="0" type="line"/>
    </contour>
    <component base="less" yOffset="100"/>
  </outline>
</glyph>
<glyph name="greaterequal" format="2">
  <advance width="400"/>
  <unicode hex="2265"/>
  <outline>
    <contour>
      <point x="50" y="0" type="line"/>
      <point x="50" y="100" type="line"/>
      <point x="350" y="100" type="line"/>
      <point x="350" y="0" type="line"/>
    </contour>
    <component base="greater" yOffset="100"/>
  </outline>
</glyph>
<glyph name="periodcentered.loclCAT.case" format="2">
  <advance width="0"/>
  <outline>
    <contour>
      <point x="-250" y="300" type="line"/>
      <point x="-250" y="400" type="line"/>
      <point x="-150" y="400" type="line"/>
      <point x="-150" y="300" type="line"/>
    </contour>
  </outline>
</glyph>
<glyph name="zero.zero" format="2">
  <advance width="600"/>
  <outline>
    <contour>
      <point x="450" y="0" type="line"/>
      <point x="150" y="0" type="line"/>
      <point x="150" y="100" type="line"/>
      <point x="50" y="100" type="line"/>
      <point x="50" y="600" type="line"/>
      <point x="150" y="600" type="line"/>
      <point x="150" y="700" type="line"/>
      <point x="450" y="700" type="line"/>
      <point x="450" y="600" type="line"/>
      <point x="550" y="600" type="line"/>
      <point x="550" y="100" type="line"/>
      <point x="450" y="100" type="line"/>
    </contour>
    <contour>
      <point x="150" y="100" type="line"/>
      <point x="450" y="100" type="line"/>
      <point x="450" y="600" type="line"/>
      <point x="150" y="600" type="line"/>
    </contour>
  </outline>
</glyph>
